<svg width="139" height="41" viewBox="0 0 139 41" fill="none" xmlns="http://www.w3.org/2000/svg">
<path d="M24.9906 11.8977C23.5808 11.9828 22.0658 12.3069 20.5142 12.8376C20.1983 12.9469 19.8458 12.8578 19.619 12.6107C19.1288 12.0719 18.6386 11.5858 18.1525 11.1564C17.5327 10.6055 16.9737 10.1923 16.4714 9.8925C16.204 9.73046 16.2648 9.33347 16.5645 9.24839C17.553 8.97698 18.59 8.83114 19.6635 8.83114C22.3615 8.83114 24.8447 9.74667 26.8216 11.286C27.0971 11.5007 26.9229 11.9463 26.5745 11.9139C26.0803 11.8694 25.5496 11.8653 24.9865 11.9018M22.4952 25.3916C23.358 24.8933 24.1723 24.3505 24.9339 23.7793C25.0554 23.6861 25.104 23.52 25.0473 23.3742C24.5571 22.1022 23.9373 20.7694 23.2081 19.4366C23.115 19.2624 22.8962 19.2017 22.722 19.3029L17.1074 22.5437C16.9372 22.6409 16.8805 22.8637 16.9818 23.0339C17.7717 24.3302 18.6143 25.5333 19.4731 26.5947C19.5704 26.7162 19.7365 26.7567 19.8823 26.696C20.7573 26.3273 21.6323 25.8898 22.4952 25.3916ZM14.2879 17.6177C14.774 18.8938 15.3979 20.2225 16.127 21.5553C16.2243 21.7295 16.443 21.7902 16.6131 21.689L22.2278 18.4482C22.402 18.351 22.4547 18.1281 22.3534 17.9621C21.5634 16.6617 20.7208 15.4586 19.862 14.3972C19.7648 14.2757 19.5987 14.2352 19.4529 14.2959C18.5779 14.6686 17.7029 15.1021 16.84 15.6003C15.9771 16.0986 15.1629 16.6414 14.4054 17.2126C14.2838 17.3058 14.2312 17.4719 14.2879 17.6177ZM25.0513 12.8821C23.8239 12.955 22.4992 13.2224 21.1462 13.668C20.9112 13.7409 20.8262 14.0245 20.9761 14.219C21.7498 15.2114 22.5033 16.3133 23.2163 17.484C23.3135 17.6501 23.5282 17.7028 23.6943 17.6096L29.1955 14.4337C29.3737 14.3324 29.4305 14.1015 29.313 13.9313C29.313 13.9313 29.313 13.9273 29.3089 13.9232C29.2887 13.8949 29.2644 13.8665 29.2401 13.8463C28.3448 13.113 26.9026 12.7768 25.0554 12.8862M24.0508 18.9343C24.7111 20.1334 25.2863 21.3406 25.7603 22.5073C25.8534 22.7341 26.1451 22.7989 26.3234 22.6369C27.3847 21.6809 28.28 20.6722 28.9565 19.6432C29.9773 18.0957 30.4067 16.6779 30.2164 15.5355C30.2083 15.5031 30.2001 15.4667 30.1839 15.4383C30.0948 15.256 29.868 15.1871 29.6897 15.2884L24.1885 18.4644C24.0183 18.5616 23.9657 18.7723 24.0548 18.9424M26.0398 26.6717C25.9345 26.1612 25.7967 25.6225 25.6306 25.0715C25.5618 24.8406 25.2863 24.7475 25.0878 24.8892C24.4234 25.3673 23.7226 25.821 22.9894 26.2463C22.2562 26.6717 21.5108 27.0484 20.7654 27.3887C20.5426 27.4859 20.4859 27.7735 20.652 27.9518C21.0449 28.3731 21.4419 28.762 21.8349 29.1063C22.7828 29.9449 23.6538 30.4999 24.3586 30.7267C24.7435 30.8523 25.1648 30.7996 25.5132 30.5971C25.5132 30.5971 25.5213 30.593 25.5253 30.589C25.8494 30.4026 26.0884 30.0867 26.1735 29.7221C26.3436 28.9929 26.3031 27.9396 26.0438 26.6717M31.3344 20.498C31.3344 19.9592 31.298 19.4245 31.225 18.9059C31.1764 18.5576 30.7025 18.4846 30.5566 18.8047C30.346 19.2584 30.0867 19.7161 29.7748 20.186C28.997 21.3608 27.96 22.5154 26.7244 23.5929C26.4692 23.8157 26.372 24.1641 26.4773 24.4841C26.696 25.1728 26.8743 25.8453 27.0039 26.4813C27.17 27.2915 27.247 27.9801 27.2591 28.5635C27.2632 28.8754 27.6399 29.0253 27.8627 28.8065C30.0057 26.6879 31.3385 23.7509 31.3385 20.498M19.7122 28.3852C19.4853 28.1381 19.1369 28.045 18.8169 28.1543C17.2694 28.6891 15.7462 29.0131 14.3405 29.0942C14.0934 29.1104 13.8544 29.1144 13.6195 29.1144C13.3197 29.1144 13.0321 29.1023 12.7566 29.078C12.4082 29.0496 12.234 29.4912 12.5095 29.7059C14.4864 31.2412 16.9696 32.1567 19.6635 32.1567C20.737 32.1567 21.7782 32.0109 22.7625 31.7395C23.0623 31.6544 23.1231 31.2574 22.8557 31.0953C22.3574 30.7915 21.7944 30.3824 21.1746 29.8314C20.6884 29.402 20.1983 28.9159 19.7081 28.3771M14.2838 28.1138C15.5113 28.0409 16.836 27.7695 18.189 27.3279C18.4199 27.255 18.509 26.9714 18.3591 26.777C17.5854 25.7845 16.8319 24.6867 16.1189 23.5119C16.0177 23.3458 15.807 23.2932 15.6409 23.3863L10.1397 26.5623C9.96143 26.6636 9.90877 26.8985 10.0222 27.0646L10.0262 27.0727C10.0465 27.1011 10.0708 27.1254 10.0951 27.1497C10.9904 27.8829 12.4325 28.2232 14.2757 28.1098M12.6108 17.403C12.866 17.1802 12.9632 16.8359 12.8579 16.5118C12.6391 15.8191 12.4609 15.1507 12.3313 14.5147C12.1652 13.7045 12.0882 13.0158 12.076 12.4284C12.072 12.1165 11.6953 11.9666 11.4725 12.1894C9.32948 14.304 8.00076 17.245 8.00076 20.4939C8.00076 21.0327 8.03722 21.5674 8.10608 22.0819C8.15469 22.4303 8.62866 22.5032 8.7745 22.1872C8.98515 21.7376 9.24846 21.2717 9.55634 20.8058C10.3341 19.6311 11.3712 18.4765 12.6067 17.403M13.2954 14.3202C13.4007 14.8306 13.5385 15.3694 13.7086 15.9244C13.7775 16.1553 14.0529 16.2485 14.2514 16.1067C14.9158 15.6287 15.6166 15.175 16.3498 14.7496C17.0831 14.3283 17.8284 13.9435 18.5738 13.6073C18.7926 13.51 18.8533 13.2224 18.6832 13.0482C18.2862 12.6269 17.8933 12.238 17.5044 11.8937C16.5321 11.0349 15.6409 10.4718 14.9239 10.253C14.5633 10.1437 14.1745 10.1923 13.8504 10.3827C13.8463 10.3827 13.8423 10.3827 13.8382 10.3908C13.4858 10.5893 13.2346 10.9296 13.1496 11.3265C12.9956 12.0517 13.0361 13.0847 13.2913 14.3243M15.2804 22.0617C14.6241 20.8585 14.0489 19.6513 13.5709 18.4887C13.4817 18.2618 13.1901 18.197 13.0118 18.3591C11.9505 19.311 11.0552 20.3238 10.3787 21.3487C9.35784 22.8962 8.93248 24.314 9.12288 25.4564C9.12693 25.4928 9.13908 25.5252 9.15529 25.5577C9.15529 25.5577 9.15529 25.5577 9.15529 25.5617C9.24441 25.744 9.47126 25.8129 9.64951 25.7116L15.1507 22.5356C15.3209 22.4384 15.3735 22.2277 15.2804 22.0617ZM39.3108 14.624C36.787 6.1656 28.9443 0 19.6676 0C10.3908 0 2.54813 6.1656 0.0243706 14.624C-0.068802 14.9319 0.113492 15.2601 0.429469 15.3411L4.70326 16.4875C5.00303 16.5685 5.3109 16.3943 5.40408 16.0986C7.28373 10.0019 12.9592 5.57415 19.6676 5.57415C26.376 5.57415 32.0555 10.0019 33.9311 16.0986C34.0243 16.3943 34.3322 16.5685 34.6319 16.4875L38.9057 15.3411C39.2176 15.256 39.3999 14.9319 39.3108 14.624ZM34.6319 24.5084C34.3322 24.4274 34.0243 24.6016 33.9311 24.8973C32.0514 30.99 26.376 35.4218 19.6676 35.4218C12.9592 35.4218 7.28373 30.9941 5.40408 24.8973C5.31496 24.5976 5.00708 24.4274 4.70326 24.5084L0.429469 25.6549C0.117543 25.7399 -0.068802 26.064 0.0243706 26.376C2.55218 34.8344 10.3908 41 19.6676 41C28.9443 41 36.787 34.8344 39.3108 26.376C39.404 26.064 39.2217 25.7399 38.9057 25.6549L34.6319 24.5084Z" fill="#3C9AE6"/>
<path d="M46.8943 28.8047H45.2617V38.2678H46.8943V28.8047Z" fill="#125394"/>
<path d="M62.3283 38.2678V32.1508C62.3283 31.9118 62.3972 31.3001 62.3972 31.3001C62.3972 31.3001 62.1298 31.9118 62.0407 32.1508L59.2455 38.2678H58.1923L55.3971 32.1508C55.2837 31.932 55.0852 31.4297 55.0609 31.3203C55.0609 31.3852 55.1054 31.932 55.1054 32.1508V38.2678H53.6309V28.8047H55.308L58.7959 36.1896L62.2392 28.8047H63.8717V38.2678H62.3283Z" fill="#125394"/>
<path d="M74.4091 30.9477L72.8414 34.5976H75.9728L74.4051 30.9477H74.4091ZM77.5162 38.2678L76.4427 35.7764H72.3472L71.2939 38.2678H69.6816L73.8217 28.8047H75.0289L79.165 38.2678H77.5081H77.5162Z" fill="#125394"/>
<path d="M89.6643 38.5341C86.8894 38.5341 84.5195 36.6099 84.5195 33.5312C84.5195 30.4524 86.9339 28.6133 89.7534 28.6133C91.0052 28.6133 92.3258 28.986 93.1319 29.5734V31.1249C92.3501 30.4241 91.3211 29.9015 89.8425 29.9015C87.7158 29.9015 86.1723 31.3234 86.1723 33.5717C86.1723 35.82 87.7158 37.2864 89.7737 37.2864C90.6244 37.2864 91.4062 37.1122 91.9652 36.8044V34.8153H90.1099V33.5717H93.5532V37.5943C93.0144 37.8131 91.5196 38.5341 89.6602 38.5341" fill="#125394"/>
<path d="M101.918 28.8047H100.285V38.2678H101.918V28.8047Z" fill="#125394"/>
<path d="M115.541 38.2678L110.129 31.6242V38.2678H108.65V28.8047H109.724L115.14 35.4483V28.8047H116.615V38.2678H115.541Z" fill="#125394"/>
<path d="M128.047 38.5341C125.272 38.5341 122.902 36.6099 122.902 33.5312C122.902 30.4524 125.317 28.6133 128.136 28.6133C129.388 28.6133 130.709 28.986 131.515 29.5734V31.1249C130.733 30.4241 129.704 29.9015 128.225 29.9015C126.099 29.9015 124.555 31.3234 124.555 33.5717C124.555 35.82 126.099 37.2864 128.156 37.2864C129.007 37.2864 129.789 37.1122 130.348 36.8044V34.8153H128.493V33.5717H131.94V37.5943C131.405 37.8131 129.902 38.5341 128.047 38.5341Z" fill="#125394"/>
<path d="M55.0489 21.5036C58.0102 21.5036 59.1242 18.5626 59.1242 13.8837C59.1242 7.64519 57.5929 6.09366 55.0489 6.09366H49.8272V21.5036H55.0489ZM45.2617 2.16016H55.4094C62.2799 2.16016 63.6896 8.13941 63.6896 13.9161C63.6896 20.7825 61.2347 25.4817 55.4094 25.4817H45.2617V2.16016Z" fill="#125394"/>
<path d="M84.6955 2.16016H89.2609V19.7171C89.2609 21.4064 90.3385 21.374 91.2824 21.374H99.4694V25.4857H89.666C87.0653 25.4857 84.6914 24.5459 84.6914 20.9446V2.16016H84.6955Z" fill="#125394"/>
<path d="M118.059 6.3553H108.632C106.935 6.3553 106.935 7.27893 106.935 8.13774V11.7755L116.576 12.1118V15.7779L106.935 16.0777V25.4759H102.369V7.07233C102.369 3.2644 105.051 2.09772 107.554 2.15849H118.059V6.3553Z" fill="#125394"/>
<path d="M120.93 2.16016H138.576V6.26785H131.936V25.4817H127.371V6.26785H120.93V2.16016Z" fill="#125394"/>
<path d="M72.2364 6.36117H81.8089V2.15625H70.9928C68.789 2.19676 66.1113 3.13254 66.1113 7.00123V20.8029C66.1154 25.0078 69.344 25.5507 71.4789 25.4899H81.8129V21.285H72.4309C71.564 21.2769 70.693 21.1594 70.6808 19.6281V16.0835L80.3181 15.7838V12.1176L70.6768 11.7814V8.1436C70.6768 7.3091 70.6808 6.41383 72.2364 6.36522" fill="#125394"/>
</svg>
