<svg
        width="24"
        height="24"
        class="mr-1.5"
        id="Logo black"
        xmlns="http://www.w3.org/2000/svg"
        viewBox="0 0 218.19685 218.19685"
        >
<path d="m129.59736,78.81415v-26.74293c0-.64863-.52153-1.17018-1.17017-1.17018h-9.36134c-.64864,0-1.17017.52155-1.17017,1.17018v26.74293c0,.64644.52153,1.17017,1.17017,1.17017h9.36134c.64864,0,1.17017-.52373,1.17017-1.17017" />
<path d="m119.06563,21.96612h9.36353c.64206,0,1.17017-.52372,1.17017-1.17016V6.033c0-.82833-.84366-1.40465-1.60843-1.0869-3.28261,1.35861-6.47537,2.99992-9.54542,4.92391-.34403.21475-.55002.59603-.55002,1.00142v9.92453c0,.64644.52373,1.17016,1.17017,1.17016" />
<path d="m206.93472,100.59789c14.32689-21.61304,14.32689-49.92058,0-71.53581-.51058-.77136-1.71799-.40101-1.71799.52372v70.48837c0,.92473,1.20741,1.29507,1.71799.52372" />
<path d="m177.3229,79.98453h9.36354c.64425,0,1.17016-.52372,1.17016-1.17017V10.90958c0-.40541-.21037-.7845-.55002-.99926-3.07005-1.92836-6.26281-3.57623-9.5498-4.93924-.76039-.31773-1.60404.26077-1.60404,1.08909v72.7542c0,.64645.52372,1.17017,1.17016,1.17017" />
<path d="m157.57862.1723c-3.17523-.2301-6.36361-.2301-9.53664.00219-.61138.04822-1.08471.56537-1.08471,1.17675v106.45678c0,.64645.52591,1.17236,1.17237,1.17236h9.36133c.64644,0,1.17018-.52591,1.17018-1.17236V1.34686c0-.61359-.47114-1.13074-1.08252-1.17456" />
<path d="m30.34369,89.77077v18.15732c0,.64645.52373,1.17017,1.17017,1.17017h9.36353c.64863,0,1.17017-.52372,1.17017-1.17017v-18.15732c0-.64644-.52154-1.17017-1.17017-1.17017h-9.36353c-.64644,0-1.17017.52373-1.17017,1.17017" />
<path d="m88.60204,81.09028v26.83717c0,.64644.52372,1.17016,1.17017,1.17016h9.36353c.64426,0,1.16798-.52372,1.16798-1.17016v-26.83717c0-.64644-.52153-1.17017-1.16798-1.17017h-9.36353c-.64645,0-1.17017.52373-1.17017,1.17017" />
<path d="m100.30438,49.64498v-26.74513c0-.64644-.52153-1.16797-1.16798-1.16797h-9.36353c-.64864,0-1.17017.52153-1.17017,1.16797v26.74513c0,.64644.52153,1.17016,1.17017,1.17016h9.36353c.64645,0,1.16798-.52372,1.16798-1.17016" />
<path d="m88.60204,139.38195v26.74513c0,.64644.52372,1.16797,1.17017,1.16797h9.36353c.64645,0,1.16798-.52153,1.16798-1.16797v-26.74513c0-.64644-.52153-1.17017-1.16798-1.17017h-9.36353c-.64645,0-1.17017.52373-1.17017,1.17017" />
<path d="m99.13509,196.23041h-9.36353c-.64426,0-1.17017.52373-1.17017,1.17017v14.76296c0,.82832.84147,1.40464,1.60843,1.0869,3.28261-1.35862,6.47537-2.99993,9.54323-4.92391.34403-.21475.55221-.59604.55221-1.00144v-9.92451c0-.64644-.52373-1.17017-1.17017-1.17017" />
<path d="m11.26579,117.59864c-14.32689,21.61304-14.32689,49.92278,0,71.53582.51058.77135,1.71581.40101,1.71581-.52373v-70.48837c0-.92473-1.20523-1.29507-1.71581-.52372" />
<path d="m40.87651,138.21156h-9.36134c-.64425,0-1.17236.52372-1.17236,1.17017v67.90479c0,.4054.20818.78449.55221.99925,3.06786,1.93056,6.26062,3.57624,9.54542,4.94144.76477.31554,1.60624-.26297,1.60624-1.09128v-72.7542c0-.64645-.52373-1.17017-1.17017-1.17017" />
<path d="m60.62101,218.02446c3.17742.23009,6.36361.23009,9.53884-.00219.60919-.04821,1.08251-.56536,1.08251-1.17674v-106.45678c0-.64645-.52592-1.17236-1.17236-1.17236h-9.35915c-.64863,0-1.17236.52591-1.17236,1.17236v106.46116c0,.61357.47114,1.13072,1.08251,1.17455" />
<path d="m187.85484,128.42554v-18.15732c0-.64645-.52153-1.17017-1.16797-1.17017h-9.36573c-.64644,0-1.16799.52372-1.16799,1.17017v18.15732c0,.64644.52155,1.17017,1.16799,1.17017h9.36573c.64644,0,1.16797-.52373,1.16797-1.17017" />
<path d="m129.59736,137.10625v-26.83717c0-.64863-.52153-1.17016-1.17017-1.17016h-9.36134c-.64645,0-1.17017.52153-1.17017,1.17016v26.83717c0,.64644.52153,1.17017,1.17017,1.17017h9.36134c.64864,0,1.17017-.52373,1.17017-1.17017" />
<path d="m117.89503,168.55134v26.74513c0,.64644.52372,1.17017,1.17017,1.17017h9.36353c.64645,0,1.16798-.52373,1.16798-1.17017v-26.74513c0-.64644-.52153-1.17017-1.16798-1.17017h-9.36353c-.64645,0-1.17017.52373-1.17017,1.17017" />
<path d="m128.42785,30.34268h-18.15732c-.64864,0-1.17017.52372-1.17017,1.17016v9.36354c0,.64644.52153,1.17018,1.17017,1.17018h18.15732c.64644,0,1.17017-.52374,1.17017-1.17018v-9.36354c0-.64644-.52373-1.17016-1.17017-1.17016" />
<path d="m137.10879,88.60061h-26.83936c-.64644,0-1.16798.52372-1.16798,1.17017v9.36353c0,.64425.52154,1.17017,1.16798,1.17017h26.83936c.64644,0,1.17017-.52372,1.17017-1.17017v-9.36353c0-.64645-.52373-1.17017-1.17017-1.17017" />
<path d="m168.55343,100.30382h26.74513c.64644,0,1.16797-.52372,1.16797-1.17017v-9.36353c0-.64645-.52153-1.17017-1.16797-1.17017h-26.74513c-.64644,0-1.17016.52372-1.17016,1.17017v9.36353c0,.64645.52372,1.17017,1.17016,1.17017" />
<path d="m78.81712,88.60061h-26.74513c-.64644,0-1.17017.52372-1.17017,1.17017v9.36353c0,.64645.52373,1.17017,1.17017,1.17017h26.74513c.64644,0,1.16798-.52372,1.16798-1.17017v-9.36353c0-.64645-.52154-1.17017-1.16798-1.17017" />
<path d="m21.96778,99.13321v-9.36353c0-.64426-.52373-1.17017-1.17017-1.17017H6.03465c-.82832,0-1.40464.84366-1.0869,1.60843,1.35862,3.28261,2.99993,6.47537,4.92391,9.54542.21475.34403.59604.55002,1.00144.55002h9.92451c.64644,0,1.17017-.52373,1.17017-1.17017" />
<path d="m100.59977,11.26369c-21.61304-14.32689-49.92059-14.32689-71.53582,0-.77135.51277-.4032,1.71799.52373,1.71799h70.48837c.92473,0,1.29507-1.20522.52372-1.71799" />
<path d="m79.98663,40.87529v-9.36354c0-.64425-.52372-1.17016-1.17017-1.17016H10.91167c-.4054,0-.78449.20599-.99925.55002-1.92837,3.07005-3.57624,6.26281-4.93924,9.5498-.31774.76039.26077,1.60404,1.08908,1.60404h72.7542c.64645,0,1.17017-.52372,1.17017-1.17016" />
<path d="m.1733,60.61979c-.23009,3.17523-.23009,6.36361.00438,9.53664.04602.61138.56317,1.08471,1.17455,1.08471h106.45679c.64864,0,1.17236-.52591,1.17236-1.17237v-9.36133c0-.64644-.52372-1.17018-1.17236-1.17018H1.35004c-.61576,0-1.13072.47114-1.17674,1.08252" />
<path d="m89.77265,187.85407h18.15732c.64645,0,1.17017-.52373,1.17017-1.17017v-9.36353c0-.64645-.52372-1.17017-1.17017-1.17017h-18.15732c-.64644,0-1.17017.52372-1.17017,1.17017v9.36353c0,.64644.52373,1.17017,1.17017,1.17017" />
<path d="m81.09194,129.59592h26.83717c.64644,0,1.17016-.52372,1.17016-1.17017v-9.36353c0-.64425-.52372-1.17017-1.17016-1.17017h-26.83717c-.64644,0-1.17017.52372-1.17017,1.17017v9.36353c0,.64645.52373,1.17017,1.17017,1.17017" />
<path d="m49.64729,117.89293h-26.74513c-.64644,0-1.17017.52372-1.17017,1.17017v9.36353c0,.64645.52373,1.17017,1.17017,1.17017h26.74513c.64644,0,1.17017-.52372,1.17017-1.17017v-9.36353c0-.64645-.52373-1.17017-1.17017-1.17017" />
<path d="m139.38448,129.59592h26.74512c.64645,0,1.16799-.52372,1.16799-1.17017v-9.36353c0-.64645-.52153-1.17017-1.16799-1.17017h-26.74512c-.64644,0-1.17017.52372-1.17017,1.17017v9.36353c0,.64645.52373,1.17017,1.17017,1.17017" />
<path d="m196.23273,119.06354v9.36353c0,.64426.52153,1.17017,1.16797,1.17017h14.76515c.82833,0,1.40465-.84366,1.0869-1.60843-1.36082-3.28261-2.99992-6.47537-4.92391-9.54542-.21475-.34403-.59822-.55002-1.00142-.55002h-9.92672c-.64644,0-1.16797.52373-1.16797,1.17017" />
<path d="m117.59964,206.93306c21.61524,14.32689,49.92278,14.32689,71.53582,0,.77136-.51277.4032-1.718-.52153-1.718h-70.49057c-.92473,0-1.29288,1.20523-.52372,1.718" />
<path d="m138.21409,177.32124v9.36353c0,.64425.52153,1.17017,1.17017,1.17017h67.9048c.40539,0,.78448-.20599.99923-.55221,1.92838-3.06786,3.57406-6.26062,4.93924-9.54322.31556-.76696-.26076-1.60844-1.08908-1.60844h-72.7542c-.64864,0-1.17017.52373-1.17017,1.17017" />
<path d="m218.02611,157.57696c.2301-3.17742.2301-6.36361-.00219-9.53665-.04822-.61138-.56537-1.0847-1.17675-1.0847h-106.45678c-.64645,0-1.17236.52592-1.17236,1.17236v9.36134c0,.64644.52591,1.17017,1.17236,1.17017h106.45897c.61578,0,1.13293-.47114,1.17675-1.08251" />
        </svg>